<svg
   version="1.1"
   id="svg2"
   width="839.19202"
   height="238.952"
   viewBox="0 0 839.19202 238.952"
   sodipodi:docname="mirano-logo-neg.ai"
   xmlns:inkscape="http://www.inkscape.org/namespaces/inkscape"
   xmlns:sodipodi="http://sodipodi.sourceforge.net/DTD/sodipodi-0.dtd"
   xmlns="http://www.w3.org/2000/svg"
   xmlns:svg="http://www.w3.org/2000/svg">
  <defs
     id="defs6">
    <clipPath
       clipPathUnits="userSpaceOnUse"
       id="clipPath16">
      <path
         d="M 0,179.214 H 629.394 V 0 H 0 Z"
         id="path14" />
    </clipPath>
  </defs>
  <sodipodi:namedview
     id="namedview4"
     pagecolor="#ffffff"
     bordercolor="#000000"
     borderopacity="0.25"
     inkscape:showpageshadow="2"
     inkscape:pageopacity="0.0"
     inkscape:pagecheckerboard="0"
     inkscape:deskcolor="#d1d1d1" />
  <g
     id="g8"
     inkscape:groupmode="layer"
     inkscape:label="mirano-logo-neg"
     transform="matrix(1.3333333,0,0,-1.3333333,0,238.952)">
    <g
       id="g10">
      <g
         id="g12"
         clip-path="url(#clipPath16)">
        <g
           id="g18"
           transform="translate(247.6546,92.8343)">
          <path
             d="m 0,0 c 0,8.22 6.65,14.892 14.87,14.918 4.442,-0.003 7.722,-1.3 9.91,-3.5 2.186,-2.201 3.318,-5.35 3.321,-9.186 V -31.58 H 40.322 V 7.082 c 0.007,6.663 -2.631,11.605 -6.609,14.818 -3.976,3.218 -9.251,4.733 -14.559,4.734 -8.032,0.001 -15.351,-4.004 -21.288,-10.592 -1.419,2.822 -3.565,5.381 -6.521,7.271 -3.216,2.058 -7.371,3.322 -12.513,3.321 -7.9,0.011 -13.107,-2.709 -17.526,-7.009 -0.221,-0.211 -0.464,-0.295 -0.713,-0.297 -0.26,0 -0.522,0.104 -0.709,0.279 -0.186,0.178 -0.305,0.41 -0.307,0.73 v 4.155 H -52.645 V -31.58 h 12.222 v 31.467 c -10e-4,8.278 6.694,14.999 14.972,15.031 4.441,-0.003 7.721,-1.3 9.909,-3.5 2.186,-2.201 3.319,-5.35 3.321,-9.186 V -31.58 H 0 Z"
             style="fill:#ffffff;fill-opacity:1;fill-rule:nonzero;stroke:none"
             id="path20" />
        </g>
        <g
           id="g22"
           transform="translate(313.6615,117.326)">
          <path
             d="M 0,0 H -12.221 V -0.553 -56.071 H 0 Z"
             style="fill:#ffffff;fill-opacity:1;fill-rule:nonzero;stroke:none"
             id="path24" />
        </g>
        <g
           id="g26"
           transform="translate(339.3465,91.5308)">
          <path
             d="m 0,0 c -0.001,4.218 1.176,8.348 3.448,11.388 2.279,3.038 5.607,5.011 10.079,5.017 0.758,0 1.548,-0.057 2.372,-0.177 2.676,-0.389 5.118,-1.515 7.18,-2.824 l 7.037,10.407 c -0.874,0.621 -6.047,4.117 -12.714,4.127 -7.509,0 -12.816,-3.36 -15.73,-5.877 C 1.469,21.889 1.256,21.821 1.036,21.819 0.777,21.819 0.51,21.926 0.317,22.11 0.123,22.295 0.002,22.538 0,22.852 v 2.943 H -12.221 V 25.243 -30.276 H 0 Z"
             style="fill:#ffffff;fill-opacity:1;fill-rule:nonzero;stroke:none"
             id="path28" />
        </g>
        <g
           id="g30"
           transform="translate(412.4513,76.5898)">
          <path
             d="m 0,0 c -3.332,-3.486 -7.478,-5.229 -12.436,-5.229 -4.881,0 -9.027,1.761 -12.435,5.287 -3.411,3.526 -5.114,7.845 -5.114,12.959 0,5.115 1.703,9.432 5.114,12.959 3.408,3.525 7.554,5.288 12.435,5.288 4.958,0 9.104,-1.743 12.436,-5.23 C 3.33,22.548 5.183,18.207 5.183,13.017 5.183,7.825 3.33,3.487 0,0 M 17.55,40.76 H 5.183 v -2.714 c 0,-1.362 -1.549,-2.096 -2.582,-1.21 -1.779,1.526 -3.75,2.707 -5.913,3.726 -3.294,1.549 -6.839,2.325 -10.635,2.325 -8.059,0 -14.858,-2.868 -20.397,-8.6 -5.54,-5.736 -8.309,-12.826 -8.309,-21.27 0,-8.601 2.691,-15.729 8.077,-21.385 5.384,-5.657 12.145,-8.484 20.281,-8.484 3.873,0 7.496,0.796 10.866,2.382 2.247,1.059 4.279,2.034 6.095,3.439 1.044,0.808 2.517,0.022 2.517,-1.298 v -3.006 H 17.55 Z"
             style="fill:#ffffff;fill-opacity:1;fill-rule:nonzero;stroke:none"
             id="path32" />
        </g>
        <g
           id="g34"
           transform="translate(475.9518,119.4684)">
          <path
             d="m 0,0 c -7.208,0.003 -13.387,-2.783 -18.594,-7.346 -0.208,-0.18 -0.429,-0.251 -0.654,-0.252 -0.258,-0.001 -0.52,0.104 -0.708,0.282 -0.189,0.181 -0.308,0.418 -0.31,0.732 v 4.442 h -12.221 v -56.072 h 12.221 v 29.206 c 0,4.759 1.718,9.076 4.608,12.204 2.893,3.128 6.949,5.071 11.688,5.088 4.439,0 8.179,-1.307 10.797,-3.532 2.617,-2.228 4.137,-5.363 4.141,-9.154 v -33.812 h 12.221 v 38.662 C 23.197,-12.854 20.02,-7.908 15.543,-4.714 11.066,-1.512 5.308,-0.002 0,0"
             style="fill:#ffffff;fill-opacity:1;fill-rule:nonzero;stroke:none"
             id="path36" />
        </g>
        <g
           id="g38"
           transform="translate(526.3638,76.7062)">
          <path
             d="m 0,0 c -3.37,3.487 -5.056,7.787 -5.056,12.901 0,5.114 1.686,9.414 5.056,12.901 3.37,3.486 7.496,5.229 12.377,5.229 4.804,0 8.91,-1.763 12.32,-5.287 3.409,-3.527 5.114,-7.807 5.114,-12.843 0,-5.038 -1.705,-9.318 -5.114,-12.843 -3.41,-3.526 -7.516,-5.287 -12.32,-5.287 C 7.496,-5.229 3.37,-3.487 0,0 m 12.377,42.77 c -8.524,0 -15.69,-2.867 -21.501,-8.6 -5.811,-5.736 -8.716,-12.825 -8.716,-21.269 0,-8.446 2.905,-15.535 8.716,-21.269 5.811,-5.735 12.977,-8.6 21.501,-8.6 8.523,0 15.69,2.865 21.501,8.6 5.811,5.734 8.717,12.823 8.717,21.269 0,8.444 -2.906,15.533 -8.717,21.269 -5.811,5.733 -12.978,8.6 -21.501,8.6"
             style="fill:#ffffff;fill-opacity:1;fill-rule:nonzero;stroke:none"
             id="path40" />
        </g>
        <g
           id="g42"
           transform="translate(165.3173,101.5689)">
          <path
             d="M 0,0 C 0,6.663 -6.213,11.586 -12.699,10.062 L -46.092,2.219 c -3.196,-0.751 -6.349,1.315 -6.349,4.16 V 13.75 L -104.882,1.434 V 1.433 c 0,-6.664 6.212,-11.586 12.699,-10.062 l 33.393,7.842 c 3.196,0.751 6.349,-1.314 6.349,-4.159 v -7.371 L 0,-0.001 Z"
             style="fill:#ffffff;fill-opacity:1;fill-rule:nonzero;stroke:none"
             id="path44" />
        </g>
        <g
           id="g46"
           transform="translate(165.3173,128.2978)">
          <path
             d="M 0,0 C 0,6.663 -6.213,11.586 -12.699,10.062 L -46.092,2.219 c -3.196,-0.75 -6.349,1.315 -6.349,4.16 V 13.75 L -104.882,1.434 V 1.433 c 0,-6.664 6.212,-11.586 12.699,-10.062 l 33.393,7.843 c 3.196,0.75 6.349,-1.315 6.349,-4.16 v -7.371 L 0,-0.001 Z"
             style="fill:#ffffff;fill-opacity:1;fill-rule:nonzero;stroke:none"
             id="path48" />
        </g>
        <g
           id="g50"
           transform="translate(60.4354,76.9347)">
          <path
             d="m 0,0 v -0.001 c 0,-6.663 6.212,-11.585 12.699,-10.062 l 33.392,7.843 c 3.197,0.751 6.35,-1.315 6.35,-4.16 v -7.298 l 52.441,12.317 v 0 c 0,6.664 -6.213,11.586 -12.7,10.062 L 58.79,0.859 C 55.593,0.108 52.441,2.173 52.441,5.018 v 7.299 z"
             style="fill:#ffffff;fill-opacity:1;fill-rule:nonzero;stroke:none"
             id="path52" />
        </g>
        <g
           id="g54"
           transform="translate(60.4354,50.9389)">
          <path
             d="m 0,0 c 0,-6.663 6.212,-11.586 12.699,-10.062 l 33.392,7.843 c 3.197,0.751 6.35,-1.315 6.35,-4.16 v -7.394 l 52.441,12.317 v 10e-4 c 0,6.663 -6.213,11.586 -12.7,10.062 L 58.79,0.764 c -3.197,-0.751 -6.349,1.315 -6.349,4.16 v 7.393 L 0,0.001 Z"
             style="fill:#ffffff;fill-opacity:1;fill-rule:nonzero;stroke:none"
             id="path56" />
        </g>
      </g>
    </g>
  </g>
</svg>
