<svg
   version="1.1"
   id="svg2"
   width="300px"
   height="238.952"
   viewBox="0 0 300 238.952"
   sodipodi:docname="mirano-logo-neg.ai"
   xmlns:inkscape="http://www.inkscape.org/namespaces/inkscape"
   xmlns:sodipodi="http://sodipodi.sourceforge.net/DTD/sodipodi-0.dtd"
   xmlns="http://www.w3.org/2000/svg"
   xmlns:svg="http://www.w3.org/2000/svg">
  <defs
     id="defs6">
    <clipPath
       clipPathUnits="userSpaceOnUse"
       id="clipPath16">
      <path
         d="M 0,179.214 H 629.394 V 0 H 0 Z"
         id="path14" />
    </clipPath>
  </defs>
  <sodipodi:namedview
     id="namedview4"
     pagecolor="#ffffff"
     bordercolor="#000000"
     borderopacity="0.25"
     inkscape:showpageshadow="2"
     inkscape:pageopacity="0.0"
     inkscape:pagecheckerboard="0"
     inkscape:deskcolor="#d1d1d1" />
  <g
     id="g8"
     inkscape:groupmode="layer"
     inkscape:label="mirano-logo-neg"
     transform="matrix(1.3333333,0,0,-1.3333333,0,238.952)">
    <g
       id="g10">
      <g
         id="g12"
         clip-path="url(#clipPath16)">
        
        <g
           id="g42"
           transform="translate(165.3173,101.5689)">
          <path
             d="M 0,0 C 0,6.663 -6.213,11.586 -12.699,10.062 L -46.092,2.219 c -3.196,-0.751 -6.349,1.315 -6.349,4.16 V 13.75 L -104.882,1.434 V 1.433 c 0,-6.664 6.212,-11.586 12.699,-10.062 l 33.393,7.842 c 3.196,0.751 6.349,-1.314 6.349,-4.159 v -7.371 L 0,-0.001 Z"
             style="fill:#ffffff;fill-opacity:1;fill-rule:nonzero;stroke:none"
             id="path44" />
        </g>
        <g
           id="g46"
           transform="translate(165.3173,128.2978)">
          <path
             d="M 0,0 C 0,6.663 -6.213,11.586 -12.699,10.062 L -46.092,2.219 c -3.196,-0.75 -6.349,1.315 -6.349,4.16 V 13.75 L -104.882,1.434 V 1.433 c 0,-6.664 6.212,-11.586 12.699,-10.062 l 33.393,7.843 c 3.196,0.75 6.349,-1.315 6.349,-4.16 v -7.371 L 0,-0.001 Z"
             style="fill:#ffffff;fill-opacity:1;fill-rule:nonzero;stroke:none"
             id="path48" />
        </g>
        <g
           id="g50"
           transform="translate(60.4354,76.9347)">
          <path
             d="m 0,0 v -0.001 c 0,-6.663 6.212,-11.585 12.699,-10.062 l 33.392,7.843 c 3.197,0.751 6.35,-1.315 6.35,-4.16 v -7.298 l 52.441,12.317 v 0 c 0,6.664 -6.213,11.586 -12.7,10.062 L 58.79,0.859 C 55.593,0.108 52.441,2.173 52.441,5.018 v 7.299 z"
             style="fill:#ffffff;fill-opacity:1;fill-rule:nonzero;stroke:none"
             id="path52" />
        </g>
        <g
           id="g54"
           transform="translate(60.4354,50.9389)">
          <path
             d="m 0,0 c 0,-6.663 6.212,-11.586 12.699,-10.062 l 33.392,7.843 c 3.197,0.751 6.35,-1.315 6.35,-4.16 v -7.394 l 52.441,12.317 v 10e-4 c 0,6.663 -6.213,11.586 -12.7,10.062 L 58.79,0.764 c -3.197,-0.751 -6.349,1.315 -6.349,4.16 v 7.393 L 0,0.001 Z"
             style="fill:#ffffff;fill-opacity:1;fill-rule:nonzero;stroke:none"
             id="path56" />
        </g>
      </g>
    </g>
  </g>
</svg>
